Coordinates
version=1
nRows=8
nColumns=63
inDegrees=yes

Units are S.I. units (second, meters, Newtons, ...)
If the header above contains a line with 'inDegrees', this indicates whether rotational values are in degrees (yes) or radians (no).

endheader
time	pelvis_tilt	pelvis_list	pelvis_rotation	pelvis_tx	pelvis_ty	pelvis_tz	hip_flexion_r	hip_adduction_r	hip_rotation_r	knee_angle_r	knee_angle_r_beta	ankle_angle_r	subtalar_angle_r	mtp_angle_r	hip_flexion_l	hip_adduction_l	hip_rotation_l	knee_angle_l	knee_angle_l_beta	ankle_angle_l	subtalar_angle_l	mtp_angle_l	L5_S1_Flex_Ext	L5_S1_Lat_Bending	L5_S1_axial_rotation	L4_L5_Flex_Ext	L4_L5_Lat_Bending	L4_L5_axial_rotation	L3_L4_Flex_Ext	L3_L4_Lat_Bending	L3_L4_axial_rotation	L2_L3_Flex_Ext	L2_L3_Lat_Bending	L2_L3_axial_rotation	L1_L2_Flex_Ext	L1_L2_Lat_Bending	L1_L2_axial_rotation	L1_T12_Flex_Ext	L1_T12_Lat_Bending	L1_T12_axial_rotation	Abs_r3	Abs_r2	Abs_r1	Abs_t1	Abs_t2	neck_flexion	neck_bending	neck_rotation	arm_flex_r	arm_add_r	arm_rot_r	elbow_flex_r	pro_sup_r	wrist_flex_r	wrist_dev_r	arm_flex_l	arm_add_l	arm_rot_l	elbow_flex_l	pro_sup_l	wrist_flex_l	wrist_dev_l
      0.00000000	      0.01738310	     -5.33974789	     86.93438194	      0.27030707	      0.89164582	      0.42728814	     -2.10119946	     -2.52638757	     -1.60417044	     13.20209917	      0.23042010	     41.19903383	      5.11487920	      0.00000000	     -8.45211740	      1.96694351	     13.68686314	      0.66240138	      0.01156109	     34.17937782	    -15.78469755	      0.00000000	     -0.04381107	      0.21838756	      0.70262532	     -0.08136153	      0.29045545	      0.74653941	     -0.07197720	      0.53098751	      0.74653941	     -0.05007167	      0.53098751	      0.61479716	     -0.04068296	      0.44533591	      0.57088307	     -0.02503364	      0.33828233	      0.52696899	     -0.31293807	      2.47044373	      3.90779126	      0.00000000	      0.00000000	     25.17081024	     -0.96405527	      2.57480264	     12.87568371	    -12.13896788	     74.44485441	     41.90450996	     26.63465527	      2.03798481	      8.59234934	      6.96624235	     -6.45467578	     52.72506976	     38.58388809	     84.06680955	     -6.54122025	     -6.31817986
      0.02222222	      0.36074653	     -5.25552165	     86.44396417	      0.27038832	      0.89250295	      0.42817329	     -2.10743891	     -2.25258500	     -0.99465725	     13.12441026	      0.22906417	     40.71682245	      4.85091288	      0.00000000	     -8.53702963	      1.77437704	     13.35969448	      0.77459696	      0.01351927	     34.15120138	    -16.00739346	      0.00000000	     -0.06591625	      0.30584594	      0.63939554	     -0.12241307	      0.40677510	      0.67935776	     -0.10829381	      0.74363382	      0.67935776	     -0.07533569	      0.74363382	      0.55947110	     -0.06120983	      0.62368104	      0.51950888	     -0.03766455	      0.47375536	      0.47954666	     -0.47083320	      3.45979044	      3.55612619	      0.00000000	      0.00000000	     24.23099621	     -0.53568813	      5.62872041	     13.61846989	    -12.01260063	     76.14427584	     41.23924593	     25.55497766	      2.17854301	      9.89934316	      8.67452663	     -6.04317656	     57.23205981	     36.45783179	     84.38309340	     -7.38298471	     -8.25706266
      0.04444444	      0.48257337	     -5.23620537	     86.12358679	      0.27094136	      0.89309021	      0.42891467	     -2.05777829	     -2.14624329	     -0.67780882	     13.09494631	      0.22854993	     40.42809631	      4.72912119	      0.00000000	     -8.51514056	      1.72363796	     11.77235117	      0.91588339	      0.01598518	     34.55046229	    -14.29695788	      0.00000000	     -0.07154492	      0.34008643	      0.62599189	     -0.13286608	      0.45231496	      0.66511638	     -0.11754115	      0.82688615	      0.66511638	     -0.08176869	      0.82688615	      0.54774290	     -0.06643662	      0.69350425	      0.50861841	     -0.04088077	      0.52679388	      0.46949392	     -0.51103823	      3.84712574	      3.48157909	      0.00000000	      0.00000000	     23.20611003	     -0.57060434	      6.58148765	     14.04907768	    -11.86825955	     77.12395737	     40.75927939	     24.97317546	      2.26877663	     10.24940770	     10.02293366	     -5.94447180	     61.37536825	     35.12881078	     82.55304410	     -8.51270575	    -10.04952458
      0.06666667	      0.44588648	     -5.12147992	     86.33232474	      0.27159417	      0.89360602	      0.42929274	     -2.24988823	     -1.90603908	      1.13624404	     12.95218532	      0.22605828	     39.85423967	      2.06428226	      0.00000000	     -8.60278477	      1.72337073	     13.02286313	      0.96207491	      0.01679137	     34.01521095	    -15.85008581	      0.00000000	     -0.08808211	      0.33289840	      0.52198392	     -0.16357729	      0.44275487	      0.55460791	     -0.14471011	      0.80940917	      0.55460791	     -0.10066905	      0.80940917	      0.45673593	     -0.08179305	      0.67884642	      0.42411193	     -0.05033012	      0.51565962	      0.39148794	     -0.62916173	      3.76581330	      2.90311796	      0.00000000	      0.00000000	     22.29688914	     -0.46497870	      6.70703833	     14.61730063	    -11.60670275	     78.82868463	     40.41922426	     23.44280627	      2.12994500	      8.94519197	     10.31274947	     -6.23237302	     62.21069721	     35.10921850	     80.63367046	     -8.84690275	    -10.22013511
      0.08888889	      0.38644372	     -5.04510134	     86.67788357	      0.27212863	      0.89398544	      0.42962636	     -2.40220881	     -1.78539657	      1.79751933	     12.86256342	      0.22449408	     39.56954010	      0.78705782	      0.00000000	     -8.62486727	      1.69880945	     13.31124871	      1.02454654	      0.01788171	     33.82209450	    -15.91093258	      0.00000000	     -0.10128688	      0.31735140	      0.44521612	     -0.18809987	      0.42207736	      0.47304213	     -0.16640422	      0.77160818	      0.47304213	     -0.11576078	      0.77160818	      0.38956411	     -0.09405500	      0.64714297	      0.36173810	     -0.05787532	      0.49157731	      0.33391209	     -0.72348206	      3.58994246	      2.47615850	      0.00000000	      0.00000000	     21.56724127	     -0.50157989	      6.32311687	     14.67229314	    -11.50705741	     78.75885044	     40.28886970	     23.94965422	      2.26045569	      7.65855431	      9.99866441	     -6.43614245	     60.60597990	     35.41359293	     79.51644533	     -7.91866035	    -10.22224794
      0.11111111	      0.27530921	     -4.98430704	     87.33856630	      0.27232865	      0.89424342	      0.42982642	     -2.59192480	     -1.72732093	      1.81581587	     12.74981477	      0.22252625	     39.43027566	     -0.01431791	      0.00000000	     -8.62278358	      1.67234469	     13.83716046	      1.05498627	      0.01841298	     33.62477791	    -15.91085232	      0.00000000	     -0.11070572	      0.29036328	      0.33325479	     -0.20559159	      0.38618316	      0.35408322	     -0.18187842	      0.70598928	      0.35408322	     -0.12652556	      0.70598928	      0.29159795	     -0.10280133	      0.59210880	      0.27076952	     -0.06325725	      0.44977272	      0.24994110	     -0.79075986	      3.28464751	      1.85346319	      0.00000000	      0.00000000	     20.97822990	     -0.59962020	      5.61674580	     14.62520746	    -11.46677427	     78.32510249	     40.33013795	     24.97643327	      2.34148830	      5.98538699	      9.30673281	     -6.71084995	     57.79519917	     36.21851107	     78.19817672	     -6.74346384	     -9.73719021
      0.13333333	      0.19691945	     -4.95515235	     88.15345750	      0.27225420	      0.89440800	      0.42976273	     -2.79096101	     -1.62907833	      1.69152090	     12.62042706	      0.22026801	     39.28779195	     -0.77913865	      0.00000000	     -8.59959361	      1.57622825	     14.51272297	      1.06242821	      0.01854287	     33.38487328	    -15.83296004	      0.00000000	     -0.10763667	      0.26603400	      0.21000410	     -0.19989206	      0.35382522	      0.22312936	     -0.17683628	      0.64683507	      0.22312936	     -0.12301795	      0.64683507	      0.18375359	     -0.09995141	      0.54249654	      0.17062833	     -0.06150359	      0.41208667	      0.15750308	     -0.76883795	      3.00942984	      1.16797981	      0.00000000	      0.00000000	     20.41742545	     -0.68521174	      4.85607179	     14.57574296	    -11.54720648	     77.94850739	     40.63751757	     26.14587306	      2.14813731	      4.46800481	      8.51003881	     -7.01493603	     54.72247654	     37.42612085	     76.50989588	     -5.39953990	     -8.63470112
      0.15555556	      0.16756980	     -4.87831450	     89.07560545	      0.27206282	      0.89457022	      0.42981291	     -3.04569630	     -1.45736066	      1.54395852	     12.45511851	      0.21738283	     39.17389256	     -1.63080359	      0.00000000	     -8.63479823	      1.40941796	     15.45829884	      1.02471247	      0.01788461	     33.16850089	    -15.94747844	      0.00000000	     -0.11557286	      0.24796181	      0.04068510	     -0.21463037	      0.32978920	      0.04322792	     -0.18987466	      0.60289433	      0.04322792	     -0.13208823	      0.60289433	      0.03559946	     -0.10732096	      0.50564371	      0.03305665	     -0.06603833	      0.38409284	      0.03051383	     -0.82552541	      2.80499353	      0.22627833	      0.00000000	      0.00000000	     20.10323795	     -0.67197468	      4.56971338	     14.58365340	    -11.60124459	     77.36658186	     41.07908261	     27.98765926	      1.85270000	      3.07056476	      7.54237402	     -7.23569728	     51.06048845	     38.87092027	     74.87301096	     -3.96855836	     -7.10167215
